<?xml version="1.0" encoding="UTF-8" standalone="no"?>
<!DOCTYPE svg PUBLIC "-//W3C//DTD SVG 1.1//EN"
 "http://www.w3.org/Graphics/SVG/1.1/DTD/svg11.dtd">
<!-- Generated by graphviz version 2.47.1 (20210417.1919)
 -->
<!-- Title: main Pages: 1 -->
<svg width="189pt" height="28pt"
 viewBox="0.00 0.00 189.00 28.00" xmlns="http://www.w3.org/2000/svg" xmlns:xlink="http://www.w3.org/1999/xlink">
<g id="graph0" class="graph" transform="scale(1 1) rotate(0) translate(4 24)">
<title>main</title>
<polygon fill="white" stroke="transparent" points="-4,4 -4,-24 185,-24 185,4 -4,4"/>
<!-- Node1 -->
<g id="node1" class="node">
<title>Node1</title>
<g id="a_node1"><a xlink:title="Main function.">
<polygon fill="#bfbfbf" stroke="black" points="0,-0.5 0,-19.5 38,-19.5 38,-0.5 0,-0.5"/>
<text text-anchor="middle" x="19" y="-7.5" font-family="Helvetica,sans-Serif" font-size="10.00">main</text>
</a>
</g>
</g>
<!-- Node2 -->
<g id="node2" class="node">
<title>Node2</title>
<g id="a_node2"><a xlink:href="../../d7/d64/_l_c_s_8c.html#a5de655ae6be68ae2fe75b39009c82f5e" target="_top" xlink:title="@breif LCS will make 2D&#45;array with optimal solutions of sub&#45;problems">
<polygon fill="white" stroke="black" points="74,-0.5 74,-19.5 110,-19.5 110,-0.5 74,-0.5"/>
<text text-anchor="middle" x="92" y="-7.5" font-family="Helvetica,sans-Serif" font-size="10.00">LCS</text>
</a>
</g>
</g>
<!-- Node1&#45;&gt;Node2 -->
<g id="edge1" class="edge">
<title>Node1&#45;&gt;Node2</title>
<path fill="none" stroke="midnightblue" d="M38.28,-10C46.03,-10 55.21,-10 63.73,-10"/>
<polygon fill="midnightblue" stroke="midnightblue" points="64,-13.5 74,-10 64,-6.5 64,-13.5"/>
</g>
<!-- Node3 -->
<g id="node3" class="node">
<title>Node3</title>
<g id="a_node3"><a xlink:href="../../d7/d64/_l_c_s_8c.html#af082905f7eac6d03e92015146bbc1925" target="_top" xlink:title="@breif max will find the maximum between 2 values">
<polygon fill="white" stroke="black" points="146,-0.5 146,-19.5 181,-19.5 181,-0.5 146,-0.5"/>
<text text-anchor="middle" x="163.5" y="-7.5" font-family="Helvetica,sans-Serif" font-size="10.00">max</text>
</a>
</g>
</g>
<!-- Node2&#45;&gt;Node3 -->
<g id="edge2" class="edge">
<title>Node2&#45;&gt;Node3</title>
<path fill="none" stroke="midnightblue" d="M110.18,-10C117.95,-10 127.32,-10 135.96,-10"/>
<polygon fill="midnightblue" stroke="midnightblue" points="136,-13.5 146,-10 136,-6.5 136,-13.5"/>
</g>
</g>
</svg>
